<svg version="1.1" id="Calque_2" xmlns="http://www.w3.org/2000/svg" xmlns:xlink="http://www.w3.org/1999/xlink" x="0px" y="0px" width="400px" height="400px" viewBox="0 0 400 400" enable-background="new 0 0 400 400" xml:space="preserve"><path fill="#E2EAED" d="M364.2,208.9c-7.3,0-13.3,6-13.3,13.3v17.8H342v-53.3c0-26.9-21.9-48.8-48.8-48.8h-79.9V99.7c13-5.3,22.2-18,22.2-32.9c0-19.6-15.9-35.5-35.5-35.5s-35.5,15.9-35.5,35.5c0,14.9,9.2,27.6,22.2,32.9v38.1h-79.9c-26.9,0-48.8,21.9-48.8,48.8v53.3h-8.9v-17.8c0-7.3-6-13.3-13.3-13.3s-13.3,6-13.3,13.3v62.1c0,7.3,6,13.3,13.3,13.3s13.3-6,13.3-13.3v-17.8H58v53.3c0,26.9,21.9,48.8,48.8,48.8h186.4c26.9,0,48.8-21.9,48.8-48.8v-53.3h8.9v17.8c0,7.3,6,13.3,13.3,13.3c7.3,0,13.3-6,13.3-13.3v-62.1C377.5,214.8,371.6,208.9,364.2,208.9zM111.2,226.6c0-19.6,15.9-35.5,35.5-35.5c19.6,0,35.5,15.9,35.5,35.5s-15.9,35.5-35.5,35.5S111.2,246.2,111.2,226.6zM239.9,315.4h-79.9c-7.3,0-13.3-6-13.3-13.3c0-7.3,6-13.3,13.3-13.3h79.9c7.3,0,13.3,6,13.3,13.3C253.3,309.4,247.3,315.4,239.9,315.4z M253.3,262.1c-19.6,0-35.5-15.9-35.5-35.5s15.9-35.5,35.5-35.5s35.5,15.9,35.5,35.5S272.8,262.1,253.3,262.1z"/></svg>