<svg version="1.1" id="mp" xmlns="http://www.w3.org/2000/svg" xmlns:xlink="http://www.w3.org/1999/xlink" x="0px" y="0px" width="400px" height="400px" viewBox="0 0 400 400" enable-background="new 0 0 400 400" xml:space="preserve"> <path fill="#E2EAED" d="M295.3,186.8H272v-77c0-39.7-32.3-72-72-72s-72,32.3-72,72v77h-23.3c-8.7,0-15.7,7-15.7,15.7v144c0,8.7,7,15.7,15.7,15.7h190.7c8.7,0,15.7-7,15.7-15.7v-144C311,193.8,304,186.8,295.3,186.8zM158,109.8c0-23.2,18.8-42,42-42c23.2,0,42,18.8,42,42v77h-84V109.8z"/></svg>