<svg version="1.1" id="talk" xmlns="http://www.w3.org/2000/svg" xmlns:xlink="http://www.w3.org/1999/xlink" x="0px" y="0px" width="400px" height="400px" viewBox="0 0 400 400" style="enable-background:new 0 0 400 400;" xml:space="preserve"><path fill="#E2EAED" d="M332.3,45.6H67.7c-15.9,0-28.8,12.9-28.8,28.8v193.4c0,15.9,12.9,28.8,28.8,28.8h15.5v72.3c0,4.5,5.1,7.1,8.7,4.4l74-76.6h166.4c15.9,0,28.8-12.9,28.8-28.8V74.5C361.1,58.5,348.2,45.6,332.3,45.6zM115.3,201.5c-11.9,0-21.5-9.6-21.5-21.5c0-11.9,9.6-21.5,21.5-21.5c11.9,0,21.5,9.6,21.5,21.5C136.8,191.9,127.2,201.5,115.3,201.5zM200.3,201.5c-11.9,0-21.5-9.6-21.5-21.5c0-11.9,9.6-21.5,21.5-21.5c11.9,0,21.5,9.6,21.5,21.5C221.8,191.9,212.2,201.5,200.3,201.5zM284.7,201.5c-11.9,0-21.5-9.6-21.5-21.5c0-11.9,9.6-21.5,21.5-21.5c11.9,0,21.5,9.6,21.5,21.5C306.2,191.9,296.5,201.5,284.7,201.5z"/></svg> 