<svg version="1.1" id="whisper" xmlns="http://www.w3.org/2000/svg" xmlns:xlink="http://www.w3.org/1999/xlink" x="0px" y="0px" width="400px" height="400px" viewBox="0 0 400 400" enable-background="new 0 0 400 400" xml:space="preserve"> <path fill="#E2EAED" d="M202.2,69.2c-73.1,0-132.4,54.9-132.4,122.5c0,37.2,17.9,70.5,46.2,92.9v43.5c0,4.8,5.2,7.9,9.5,5.4l40.6-24c11.4,3,23.5,4.6,36.1,4.6c73.1,0,132.4-54.9,132.4-122.5S275.4,69.2,202.2,69.2z"/><path fill="#E2EAED" d="M96.5,393.4c-10.1,0-18.3-8.2-18.3-18.3v-34.9h20v34.8l9,15.2l-1.3,0.8C102.9,392.5,99.7,393.4,96.5,393.4z M97.5,373.7l0.7,1.2C98.1,374.5,97.9,374,97.5,373.7z M134.7,373.8l-10.2-17.2l24.9-14.7c2.3-1.4,5-1.7,7.6-1.1c7.6,2,15.4,3.5,23.3,4.4l-2.4,19.9c-7.3-0.9-14.7-2.2-21.8-3.9L134.7,373.8z M211.5,366.3l-0.9-20c17.2-0.8,34-4,50-9.6l6.6,18.9C249.4,361.8,230.6,365.4,211.5,366.3z M297.9,341.8l-9.8-17.4c15-8.4,28.4-19,39.9-31.3l14.7,13.6C329.8,320.5,314.8,332.3,297.9,341.8z M74.4,319c-14.5-12.9-26.6-27.8-36-44.2l17.4-9.9c8.3,14.5,19,27.7,31.9,39.1L74.4,319z M363.2,279.6l-17-10.5c8.9-14.6,15.2-30.3,18.5-46.7l19.6,4C380.4,245.2,373.4,263.1,363.2,279.6z M24.7,243.6c-5.1-15.9-7.7-32.4-7.7-49.2c0-2.5,0.1-5.1,0.2-7.6l20,0.9c-0.1,2.2-0.2,4.5-0.2,6.7c0,14.6,2.3,29.1,6.7,43L24.7,243.6z M367.5,192.8c-0.2-16.9-3.4-33.5-9.4-49.2l18.7-7.2c6.9,18,10.6,36.9,10.8,56.2L367.5,192.8z M41.7,158.3l-19.3-5.1c4.9-18.4,13-35.9,24.1-51.9l16.4,11.4C53.1,126.8,46,142.2,41.7,158.3z M344.4,116.9c-9.1-14.1-20.5-26.7-34-37.4L323,63.9c15.2,12.1,28,26.3,38.3,42.2L344.4,116.9z M82.3,89.9L68.3,75.5c13.6-13.2,29.2-24.2,46.4-32.8l8.9,17.9C108.3,68.3,94.4,78.1,82.3,89.9z M285.3,62.9c-14.9-8-31-13.8-47.9-17.1l3.9-19.6c18.8,3.7,36.8,10.2,53.4,19.1L285.3,62.9z M151.8,49.6l-5.7-19.2c18.1-5.3,36.9-8,56.1-8c1.9,0,3.8,0,5.7,0.1l-0.6,20c-1.7,0-3.4-0.1-5.1-0.1C185,42.3,168,44.8,151.8,49.6z"/></svg>