<svg version="1.1" xmlns="http://www.w3.org/2000/svg" xmlns:xlink="http://www.w3.org/1999/xlink" x="0px" y="0px"   width="400px" height="400px" viewBox="0 0 400 400" enable-background="new 0 0 400 400" xml:space="preserve"> <path fill="#E2EAED" d="M163.7,325.9L342,270.1l-168.4-218l-158,252.8l41.8,54.2l25.8-8.1l6.3,21.6c1,3.5,4.2,5.8,7.7,5.8c0.7,0,1.5-0.1,2.3-0.3l65.4-19.2c2-0.6,3.8-2,4.8-3.8c1-1.9,1.3-4.1,0.7-6.1L163.7,325.9z M102.8,360.4l-4.2-14.2l49.7-15.6    l4.4,15.1L102.8,360.4z"/><path fill="#E2EAED" d="M237.3,103.2c-2.3,0.6-4.8,0.3-7-1.1c-4.2-2.6-5.5-8.2-2.9-12.4l48.3-78.3c2.6-4.2,8.2-5.5,12.4-2.9  c4.2,2.6,5.5,8.2,2.9,12.4l-48.3,78.3C241.4,101.2,239.4,102.6,237.3,103.2z"/><path fill="#E2EAED" d="M285,149.5c-3.4,1-7.3-0.2-9.6-3.2c-3-3.9-2.3-9.6,1.6-12.6l75.3-58.2c3.9-3,9.6-2.3,12.6,1.6c3,3.9,2.3,9.6-1.6,12.6L288,148C287.1,148.7,286.1,149.2,285,149.5z"/><path fill="#E2EAED" d="M380,181.1c-0.2,0.1-0.4,0.2-0.6,0.3l-61.3,26.9c-4.6,2-9.9-0.1-11.9-4.6c-2-4.6,0.1-9.9,4.6-11.9l61.3-26.9c4.6-2,9.9,0.1,11.9,4.6C385.9,173.9,384.1,179,380,181.1z"/></svg>