<svg version="1.1" id="Calque_2" xmlns="http://www.w3.org/2000/svg" xmlns:xlink="http://www.w3.org/1999/xlink" x="0px" y="0px" width="400px" height="400px" viewBox="0 0 400 400" enable-background="new 0 0 400 400" xml:space="preserve"> <g> <path fill="#E2EAED" d="M145.9,165.5h54.3h54.3c5.9,0,10.7-4.8,10.7-10.7v-11.7c0-30.6-24.3-57.1-57.4-57.1 c17.5-3.5,30.7-19,30.7-37.6c0-21.2-17.1-38.3-38.2-38.3S162,27.3,162,48.4c0,18.6,13.2,34.1,30.7,37.6c-33.1,0-57.4,26.4-57.4,57.1v11.7C135.3,160.7,140,165.5,145.9,165.5L145.9,165.5z"/><path fill="#E2EAED" d="M57.7,195.4c0.7,0.1,1.3,0.2,2,0.2c5.3,0,10-3.8,10.9-9.2c2.7-15.1,7.9-29.8,15.4-43.7 c7.2-13.4,16.3-25.4,27-35.7c4.4-4.3,4.6-11.4,0.3-15.8c-4.3-4.4-11.3-4.6-15.7-0.3c-12.3,11.9-22.8,25.7-31.1,41.1 c-8.6,15.9-14.6,32.9-17.8,50.4C47.6,188.4,51.6,194.3,57.7,195.4L57.7,195.4z"/><path fill="#E2EAED" d="M314.4,142.7c7.5,13.9,12.7,28.6,15.4,43.7c1,5.4,5.7,9.2,10.9,9.2c0.7,0,1.3-0.1,2-0.2 c6.1-1.1,10.1-6.9,9-13c-3.2-17.5-9.1-34.4-17.8-50.4c-8.3-15.4-18.8-29.2-31.1-41.1c-4.4-4.3-11.5-4.2-15.7,0.3 c-4.3,4.4-4.1,11.5,0.3,15.8C298.1,117.3,307.1,129.3,314.4,142.7L314.4,142.7z"/><path fill="#E2EAED" d="M245.2,280.8c-14.4,4.7-29.5,7.2-45,7.2c-0.2,0-0.4,0-0.6,0c-15.2,0-30-2.3-44.1-6.8 c-5.9-1.9-12.1,1.4-14,7.3c-1.9,5.9,1.4,12.2,7.3,14c16.3,5.2,33.4,7.8,50.8,7.8h0.6c17.9-0.1,35.3-2.9,51.9-8.3 c5.8-1.9,9-8.2,7.1-14.1C257.3,282,251,278.8,245.2,280.8L245.2,280.8z"/><path fill="#E2EAED" d="M82.2,310.5c17.5-3.5,30.7-19,30.7-37.6c0-21.2-17.1-38.3-38.2-38.3s-38.2,17.2-38.2,38.3 c0,18.6,13.2,34.1,30.7,37.6c-33.1,0-57.4,26.4-57.4,57.1v11.7c0,5.9,4.8,10.7,10.7,10.7h54.3h54.3c5.9,0,10.7-4.8,10.7-10.7v-11.7 C139.6,337,115.4,310.5,82.2,310.5L82.2,310.5z"/><path fill="#E2EAED" d="M332.8,310.5c17.5-3.5,30.7-19,30.7-37.6c0-21.2-17.1-38.3-38.2-38.3c-21.1,0-38.2,17.2-38.2,38.3 c0,18.6,13.2,34.1,30.7,37.6c-33.1,0-57.4,26.4-57.4,57.1v11.7c0,5.9,4.8,10.7,10.7,10.7h54.3h54.3c5.9,0,10.7-4.8,10.7-10.7v-11.7 C390.3,336.9,366,310.5,332.8,310.5L332.8,310.5z"/></g></svg>