<svg version="1.1" id="Calque_3" xmlns="http://www.w3.org/2000/svg" xmlns:xlink="http://www.w3.org/1999/xlink" x="0px" y="0px" width="400px" height="400px" viewBox="0 0 400 400" xml:space="preserve"><path fill="#878C93" d="M95.2,390.9c-1.7,0-3.3-0.5-4.8-1.4c-2.9-1.8-4.5-5.1-4.2-8.4l7.4-82.9C47,269.1,19.3,222.5,19.3,172.8c0-41.7,19-80.8,53.5-110.2c34.1-29,79.2-44.9,127.2-44.9c48,0,93.2,16,127.2,44.9c34.5,29.3,53.5,68.5,53.5,110.2s-19,80.8-53.5,110.2c-33.5,28.5-77.7,44.4-124.7,44.9L99.9,389.6C98.4,390.5,96.8,390.9,95.2,390.9zM200,35.6c-89.7,0-162.7,61.5-162.7,137.1c0,45,26.3,87.2,70.4,112.9c3,1.8,4.7,5.1,4.4,8.6l-6.3,70.8l89.6-53.9c1.4-0.8,3-1.3,4.6-1.3c89.7,0,162.7-61.5,162.7-137.1C362.7,97.1,289.7,35.6,200,35.6z"/><circle fill="#878C93" cx="120" cy="181" r="19.6"/><circle fill="#878C93" cx="200" cy="181" r="19.6"/> <circle fill="#878C93" cx="280" cy="181" r="19.6"/></svg>