<svg version="1.1" xmlns="http://www.w3.org/2000/svg" xmlns:xlink="http://www.w3.org/1999/xlink" x="0px" y="0px" viewBox="0 0 400 400" xml:space="preserve"><path d="M356.9,130.7c0.9-1.2,1.2-2.6,1-4.1c-0.2-1.5-1-2.7-2.2-3.6c-2.4-1.8-5.9-1.3-7.7,1.2c-4.2,5.7-13,9.4-22.5,9.4c-9.5,0-18.3-3.7-22.5-9.4c-0.9-1.2-2.1-2-3.6-2.2c-1.4-0.2-2.9,0.1-4.1,1c-1.2,0.9-2,2.1-2.2,3.6c-0.2,1.5,0.1,2.9,1,4.1c6.3,8.6,18.3,13.9,31.3,13.9C338.6,144.6,350.6,139.3,356.9,130.7z"/><path d="M155,204.4c0.3,0.1,0.7,0.1,1.1,0.1c2.6,0,4.9-1.9,5.4-4.4c1.3-6.9,7.8-14,16.4-18s18.1-4.5,24.3-1.1c2.7,1.5,6,0.5,7.5-2.2c0.7-1.3,0.9-2.8,0.5-4.2c-0.4-1.4-1.4-2.6-2.6-3.3c-9.3-5.1-22.4-4.8-34.3,0.8c-11.8,5.6-20.4,15.5-22.5,25.9C150.1,200.9,152,203.8,155,204.4z"/><path d="M129.3,216.5c1.5-2.7,0.5-6-2.2-7.5c-9.3-5.1-22.4-4.8-34.3,0.8c-11.8,5.6-20.4,15.5-22.5,25.9c-0.6,3,1.4,5.9,4.3,6.5c0.3,0.1,0.7,0.1,1.1,0.1c2.6,0,4.9-1.9,5.4-4.4c1.3-6.9,7.8-14,16.4-18c8.6-4,18.1-4.5,24.3-1.1C124.5,220.1,127.8,219.1,129.3,216.5z"/><path d="M209.3,239.3c-3-0.2-5.6,2.1-5.8,5.1c-0.8,12.9-12.5,26.8-29.1,34.6c-16.6,7.8-34.7,7.9-45.2,0.3c-1.2-0.9-2.6-1.2-4.1-1c-1.5,0.2-2.7,1-3.6,2.2c-1.8,2.5-1.2,5.9,1.2,7.7c7,5.1,16.2,7.8,26.5,7.8c9.8,0,20.1-2.4,29.8-7c20.4-9.6,34.3-26.8,35.4-43.9C214.6,242.1,212.3,239.5,209.3,239.3z"/><path d="M388.7,60.1L388.7,60.1c-1.9-0.8-47-19.4-107.5-19.4c-60.4,0-105.6,18.6-107.5,19.4c-2.1,0.9-3.4,2.9-3.4,5.1v28.6c-24.8,5-49.6,13.1-72,23.6c-54.7,25.7-87.7,61.7-89,63.2c-1.5,1.6-1.8,4-0.9,6l46.9,99.8c0.4,0.9,10.8,22.7,35,42.3c17.2,13.9,46.6,30.6,89.1,30.6c9.6,0,19.6-0.9,29.7-2.5c1-0.2,1.9-0.6,2.7-1.3C232.2,338,247,318,256,296.1c7.5,3.3,15.4,6.1,23.7,8.4c1,0.3,2,0.3,3,0c56.4-15.9,83.1-50,95.6-75.9c13.6-28.1,13.7-52.2,13.7-53.2V65.2C392,62.9,390.7,60.9,388.7,60.1z M266.2,246.1c0.1-11.7-1.2-23.4-3.9-34.7c5.9-1.9,12.4-2.9,18.9-2.9c18.3,0,34.8,7.6,41,19c1,1.8,2.8,2.9,4.8,2.9c0.9,0,1.8-0.2,2.6-0.7c2.7-1.5,3.6-4.8,2.2-7.5c-8.2-15-28.1-24.7-50.7-24.7c-7.6,0-15,1.1-21.9,3.3c-1.7-5.2-3.1-8.3-3.3-8.6l-22.4-47.7c1.1,0.1,2.2,0.1,3.2,0.1c13.1,0,25.1-5.3,31.3-13.9c0.9-1.2,1.2-2.6,1-4.1c-0.2-1.5-1-2.7-2.2-3.6c-1.2-0.9-2.6-1.2-4.1-1c-1.5,0.2-2.7,1-3.6,2.2c-4.2,5.7-13,9.4-22.5,9.4c-3,0-6-0.4-8.9-1.1l-18.8-40.1c-1-2-3-3.3-5.2-3.2c-0.9,0-9.2,0.4-22.6,2.6V68.9c11.8-4.4,51-17.2,99.8-17.2c48.8,0,88,12.9,99.8,17.2v106.5c0,0.2-0.3,23-12.8,48.7c-16.6,34.1-45.9,57.4-87.1,69.3c-7.5-2.2-14.7-4.8-21.4-7.7C263.9,272.9,266,259.6,266.2,246.1z M255.2,246.4c-0.5,37.9-17.1,71.5-49.3,99.8c-42.3,6.7-78.8-2-108.3-25.7c-22.3-18-32.2-38.5-32.3-38.7L20,185.4c8.9-9,38.9-37.3,83-58c44.2-20.7,85.1-25.8,97.7-26.9l45.3,96.4C246.1,197,255.6,217.7,255.2,246.4z"/></svg>