<svg version="1.1" id="Calque_4" xmlns="http://www.w3.org/2000/svg" xmlns:xlink="http://www.w3.org/1999/xlink" x="0px" y="0px" width="15px" height="15px" viewBox="0 0 400 400" style="enable-background:new 0 0 400 400;" xml:space="preserve"> <path fill="#ffffff" d="M372.1,344.4l-66.9-66.9c-0.3-0.3-0.6-0.5-0.9-0.8c21.2-27.2,33.9-61.3,33.9-98.5c0-88.4-71.6-160-160-160s-160,71.6-160,160s71.6,160,160,160c36.2,0,69.6-12,96.4-32.3c0.3,0.4,0.7,0.8,1,1.1l66.9,66.9c4.1,4.1,9.4,6.1,14.8,6.1c5.3,0,10.7-2,14.8-6.1C380.2,365.8,380.2,352.6,372.1,344.4z M178.2,296.5c-65.2,0-118.2-53-118.2-118.2S113,60,178.2,60s118.2,53,118.2,118.2S243.4,296.5,178.2,296.5z"/></svg>