<svg version="1.1" id="Calque_2_1_" xmlns="http://www.w3.org/2000/svg" xmlns:xlink="http://www.w3.org/1999/xlink" x="0px" y="0px" width="400px" height="400px" viewBox="0 0 400 400" style="enable-background:new 0 0 400 400;" xml:space="preserve"><path fill="#878C93" d="M200,15.6C98.3,15.6,15.6,98.3,15.6,200S98.3,384.4,200,384.4S384.4,301.7,384.4,200S301.7,15.6,200,15.6zM200,33.6c91.7,0,166.4,74.6,166.4,166.4c0,38-12.8,73-34.3,101.1c-7-20-17.3-38.4-30.5-54.2c-13-15.6-28.1-27.8-44.5-36.2c15.1-14.8,24.5-35.4,24.5-58.2c0-45-36.6-81.5-81.5-81.5c-45,0-81.5,36.6-81.5,81.5c0,22.8,9.4,43.4,24.5,58.2c-16.4,8.5-31.5,20.7-44.5,36.2C85.2,262.7,75,281.1,68,301.1C46.4,273,33.6,238,33.6,200C33.6,108.3,108.3,33.6,200,33.6zM200,216c-35,0-63.5-28.5-63.5-63.5S165,88.9,200,88.9s63.5,28.5,63.5,63.5S235,216,200,216zM200,366.4c-46.2,0-88-18.9-118.1-49.4c12.5-43.9,41.1-78.8,77.3-94c12,7,25.9,11,40.8,11c14.9,0,28.8-4,40.8-11c36.2,15.2,64.9,50.1,77.3,94C288,347.5,246.2,366.4,200,366.4z"/></svg> 